{"title":"From Darkness S01E02 x264 RB58.mp4","uid":12556674,"size":668134597,"categoryP":"video","categoryS":"tv_shows","magnet":"?xt=urn:btih:6606d3d6ca2cf60432f4f6e919ba42ac657e04fb&amp;dn=From+Darkness+S01E02+x264+RB58.mp4&amp;tr=udp%3A%2F%2Ftracker.leechers-paradise.org%3A6969&amp;tr=udp%3A%2F%2Fzer0day.ch%3A1337&amp;tr=udp%3A%2F%2Fopen.demonii.com%3A1337&amp;tr=udp%3A%2F%2Ftracker.coppersurfer.tk%3A6969&amp;tr=udp%3A%2F%2Fexodus.desync.com%3A6969","seeders":1,"leechers":0,"uploader":"RedBaron58","files":1,"time":1444646469,"description":"From Darkness S01E02 x264 mp4\r\n \nhttp://www.imdb.com/title/tt4511898/\r\n\r\nTrailer:\r\n\r\n\r\nPlease be patient My intial upload speed is limited.\r\nThank you for your kind comments and feedback on my other torrents, your feedback is welcome.\r\n\r\n\r\nAbout the Episode:\r\nAnother body is discovered, which seems to have been left as a message for Claire when her old shoulder \r\nnumber is found. She decides to return to Manchester and work on the case, to John's delight \r\nbut leaving Norrie devastated as he feels she is being dragged away from him, especially as more secrets \r\ncome to light and professional and personal issues collide. \r\nClaire takes responsibility for determining the identities of the corpses, and tries to persuade \r\nthe Fenton family to determine if their daughter is among the victims.\r\n\r\n\r\nI hope you enjoy.\r\n\r\n\r\nTechnical:\r\n\r\nGeneral\r\nComplete name                            : H:From Darkness S01E02 x264 RB58.mp4\r\nFormat                                   : MPEG-4\r\nFormat profile                           : Base Media\r\nCodec ID                                 : isom\r\nFile size                                : 637 MiB\r\nDuration                                 : 58mn 34s\r\nOverall bit rate                         : 1 521 Kbps\r\nWriting application                      : Lavf54.63.104\r\n\r\nVideo\r\nID                                       : 1\r\nFormat                                   : AVC\r\nFormat/Info                              : Advanced Video Codec\r\nFormat profile                           :   \r\nFormat settings, CABAC                   : Yes\r\nFormat settings, ReFrames                : 4 frames\r\nCodec ID                                 : avc1\r\nCodec ID/Info                            : Advanced Video Coding\r\nDuration                                 : 58mn 34s\r\nBit rate                                 : 1 400 Kbps\r\nWidth                                    : 832 pixels\r\nHeight                                   : 468 pixels\r\nDisplay aspect ratio                     : 16:9\r\nFrame rate mode                          : Constant\r\nFrame rate                               : 25.000 fps\r\nColor space                              : YUV\r\nChroma subsampling                       : 4:2:0\r\nBit depth                                : 8 bits\r\nScan type                                : Progressive\r\nBits/(Pixel*Frame)                       : 0.144\r\nStream size                              : 586 MiB (92%)\r\nWriting library                          : x264 core 123 r2189 35cf912\r\nEncoding settings                        : cabac=1 / ref=3 / deblock=1:0:0\r\n\r\nAudio\r\nID                                       : 2\r\nFormat                                   : AAC\r\nFormat/Info                              : Advanced Audio Codec\r\nFormat profile                           : LC\r\nCodec ID                                 : 40\r\nDuration                                 : 58mn 34s\r\nBit rate mode                            : Constant\r\nBit rate                                 : 113 Kbps\r\nChannel(s)                               : 2 channels\r\nChannel positions                        : Front: L R\r\nSampling rate                            : 48.0 KHz\r\nCompression mode                         : Lossy\r\nStream size                              : 47.2 MiB (7%)","torrent":{"xt":"urn:btih:6606d3d6ca2cf60432f4f6e919ba42ac657e04fb","amp;dn":"From+Darkness+S01E02+x264+RB58.mp4","amp;tr":["udp%3A%2F%2Ftracker.leechers-paradise.org%3A6969","udp%3A%2F%2Fzer0day.ch%3A1337","udp%3A%2F%2Fopen.demonii.com%3A1337","udp%3A%2F%2Ftracker.coppersurfer.tk%3A6969","udp%3A%2F%2Fexodus.desync.com%3A6969"],"infoHash":"6606d3d6ca2cf60432f4f6e919ba42ac657e04fb","infoHashBuffer":{"type":"Buffer","data":[102,6,211,214,202,44,246,4,50,244,246,233,25,186,66,172,101,126,4,251]},"announce":[],"urlList":[]}}